<svg width="34" height="34" viewBox="0 0 34 34" fill="none" xmlns="http://www.w3.org/2000/svg">
<path d="M30 7H4C3.44772 7 3 7.44772 3 8C3 8.55228 3.44771 9 4 9H30C30.5523 9 31 8.55228 31 8C31 7.44772 30.5523 7 30 7Z" fill="#323232"/>
<path d="M30 16H4C3.44772 16 3 16.4477 3 17C3 17.5523 3.44771 18 4 18H30C30.5523 18 31 17.5523 31 17C31 16.4477 30.5523 16 30 16Z" fill="#323232"/>
<path d="M30 25H4C3.44772 25 3 25.4477 3 26C3 26.5523 3.44771 27 4 27H30C30.5523 27 31 26.5523 31 26C31 25.4477 30.5523 25 30 25Z" fill="#323232"/>
</svg>
