<svg width="34" height="34" viewBox="0 0 34 34" fill="none" xmlns="http://www.w3.org/2000/svg">
<g clip-path="url(#clip0_1_314)">
<mask id="path-1-inside-1_1_314" fill="white">
<path fill-rule="evenodd" clip-rule="evenodd" d="M28.8184 29.2199C32.0135 26.1291 34 21.7965 34 17C34 7.61116 26.3888 0 17 0C7.61116 0 0 7.61116 0 17C0 21.7965 1.98647 26.1291 5.18159 29.2199C5.06224 28.8237 5 28.4161 5 28C5 24.134 10.3726 21 17 21C23.6274 21 29 24.134 29 28C29 28.4161 28.9378 28.8237 28.8184 29.2199Z"/>
</mask>
<path fill-rule="evenodd" clip-rule="evenodd" d="M28.8184 29.2199C32.0135 26.1291 34 21.7965 34 17C34 7.61116 26.3888 0 17 0C7.61116 0 0 7.61116 0 17C0 21.7965 1.98647 26.1291 5.18159 29.2199C5.06224 28.8237 5 28.4161 5 28C5 24.134 10.3726 21 17 21C23.6274 21 29 24.134 29 28C29 28.4161 28.9378 28.8237 28.8184 29.2199Z" fill="#F9F9F9"/>
<path d="M28.8184 29.2199L27.3822 28.7872L25.7202 34.3039L29.8613 30.298L28.8184 29.2199ZM5.18159 29.2199L4.13868 30.298L8.27981 34.3039L6.61783 28.7872L5.18159 29.2199ZM32.5 17C32.5 21.3736 30.6906 25.3219 27.7755 28.1418L29.8613 30.298C33.3365 26.9363 35.5 22.2195 35.5 17H32.5ZM17 1.5C25.5604 1.5 32.5 8.43959 32.5 17H35.5C35.5 6.78273 27.2173 -1.5 17 -1.5V1.5ZM1.5 17C1.5 8.43959 8.43959 1.5 17 1.5V-1.5C6.78273 -1.5 -1.5 6.78273 -1.5 17H1.5ZM6.2245 28.1418C3.30943 25.3219 1.5 21.3736 1.5 17H-1.5C-1.5 22.2195 0.663503 26.9363 4.13868 30.298L6.2245 28.1418ZM6.61783 28.7872C6.53935 28.5267 6.5 28.2647 6.5 28H3.5C3.5 28.5675 3.58514 29.1208 3.74535 29.6526L6.61783 28.7872ZM6.5 28C6.5 26.822 7.32953 25.4782 9.27052 24.3459C11.1747 23.2352 13.9041 22.5 17 22.5V19.5C13.4685 19.5 10.1979 20.3319 7.75891 21.7546C5.35677 23.1558 3.5 25.312 3.5 28H6.5ZM17 22.5C20.0959 22.5 22.8253 23.2352 24.7295 24.3459C26.6705 25.4782 27.5 26.822 27.5 28H30.5C30.5 25.312 28.6432 23.1558 26.2411 21.7546C23.8021 20.3319 20.5315 19.5 17 19.5V22.5ZM27.5 28C27.5 28.2647 27.4607 28.5267 27.3822 28.7872L30.2547 29.6526C30.4149 29.1208 30.5 28.5675 30.5 28H27.5Z" fill="#C9C8C8" mask="url(#path-1-inside-1_1_314)"/>
<circle cx="17" cy="17" r="16.25" stroke="#C9C8C8" stroke-width="1.5"/>
<path fill-rule="evenodd" clip-rule="evenodd" d="M17 30.9955C24.7295 30.9955 30.9955 24.7295 30.9955 17C30.9955 9.27051 24.7295 3.00452 17 3.00452C9.27051 3.00452 3.00452 9.27051 3.00452 17C3.00452 24.7295 9.27051 30.9955 17 30.9955ZM17 32.5505C25.5883 32.5505 32.5505 25.5883 32.5505 17C32.5505 8.41168 25.5883 1.44946 17 1.44946C8.41168 1.44946 1.44946 8.41168 1.44946 17C1.44946 25.5883 8.41168 32.5505 17 32.5505Z" fill="#F9F9F9"/>
<circle cx="17" cy="14" r="6.25" fill="white" stroke="#C9C8C8" stroke-width="1.5"/>
</g>
<defs>
<clipPath id="clip0_1_314">
<rect width="34" height="34" fill="white"/>
</clipPath>
</defs>
</svg>
