<svg width="34" height="34" viewBox="0 0 34 34" fill="none" xmlns="http://www.w3.org/2000/svg">
<path d="M24.8159 8.97237L25.0283 9.1847L9.18454 25.0285L8.97221 24.8161L24.8159 8.97237Z" fill="#4A4A4A" stroke="#4A4A4A"/>
<path d="M24.3299 8.69857C24.5983 8.43016 25.0335 8.43016 25.3019 8.69857C25.5703 8.96699 25.5703 9.40218 25.3019 9.6706L9.67056 25.302C9.40214 25.5704 8.96695 25.5704 8.69853 25.302C8.43011 25.0336 8.43011 24.5984 8.69853 24.33L24.3299 8.69857Z" stroke="#4A4A4A" stroke-width="0.3"/>
<path d="M8.97175 9.18414L9.18409 8.97181L25.0278 24.8156L24.8155 25.0279L8.97175 9.18414Z" fill="#4A4A4A" stroke="#4A4A4A"/>
<path d="M8.69814 9.67016C8.42973 9.40174 8.42973 8.96655 8.69814 8.69813C8.96656 8.42971 9.40175 8.42971 9.67017 8.69813L25.3015 24.3296C25.57 24.598 25.57 25.0332 25.3015 25.3016C25.0331 25.57 24.5979 25.57 24.3295 25.3016L8.69814 9.67016Z" stroke="#4A4A4A" stroke-width="0.3"/>
</svg>
