<svg width="34" height="35" viewBox="0 0 34 35" fill="none" xmlns="http://www.w3.org/2000/svg">
<path fill-rule="evenodd" clip-rule="evenodd" d="M22.7102 9.29505C20.9757 8.4806 19.0511 7.94839 17 7.94839C11.7627 7.94839 7.35069 11.4181 4.81965 14.1966C3.71812 15.4059 3.72739 17.2146 4.85573 18.3989C6.06829 19.6715 7.66554 21.0434 9.50394 22.165L22.7102 9.29505ZM11.9471 23.4238C13.5421 24.0948 15.25 24.5168 17 24.5168C21.8949 24.5168 26.4612 21.2148 29.1442 18.3989C30.2726 17.2146 30.2818 15.4059 29.1803 14.1966C28.1164 13.0287 26.7201 11.7386 25.0698 10.6354L11.9471 23.4238Z" fill="#4A4A4A"/>
<path d="M22.7102 9.29505L23.0592 9.65314C23.1767 9.53865 23.2305 9.37382 23.2033 9.21206C23.1761 9.0503 23.0712 8.91218 22.9228 8.84246L22.7102 9.29505ZM4.81965 14.1966L4.45002 13.8599H4.45002L4.81965 14.1966ZM4.85573 18.3989L4.49374 18.7438H4.49374L4.85573 18.3989ZM9.50394 22.165L9.24354 22.5918C9.43853 22.7108 9.68933 22.6825 9.8529 22.5231L9.50394 22.165ZM11.9471 23.4238L11.5982 23.0657C11.4781 23.1827 11.4247 23.3521 11.4559 23.5168C11.4871 23.6816 11.5987 23.8197 11.7533 23.8847L11.9471 23.4238ZM29.1442 18.3989L29.5062 18.7438L29.1442 18.3989ZM29.1803 14.1966L28.8107 14.5334V14.5334L29.1803 14.1966ZM25.0698 10.6354L25.3477 10.2197C25.1514 10.0885 24.89 10.1125 24.7208 10.2773L25.0698 10.6354ZM22.9228 8.84246C21.1358 8.00342 19.1387 7.44839 17 7.44839V8.44839C18.9635 8.44839 20.8155 8.95777 22.4977 9.74764L22.9228 8.84246ZM17 7.44839C11.5499 7.44839 7.01286 11.0465 4.45002 13.8599L5.18928 14.5334C7.68852 11.7897 11.9755 8.44839 17 8.44839V7.44839ZM4.45002 13.8599C3.17401 15.2607 3.18208 17.3671 4.49374 18.7438L5.21773 18.054C4.27271 17.0621 4.26223 15.5511 5.18928 14.5334L4.45002 13.8599ZM4.49374 18.7438C5.73175 20.0431 7.36245 21.4442 9.24354 22.5918L9.76433 21.7381C7.96862 20.6426 6.40484 19.2999 5.21773 18.054L4.49374 18.7438ZM9.8529 22.5231L23.0592 9.65314L22.3613 8.93697L9.15498 21.8069L9.8529 22.5231ZM11.7533 23.8847C13.3955 24.5755 15.1697 25.0168 17 25.0168V24.0168C15.3304 24.0168 13.6887 23.614 12.141 22.9629L11.7533 23.8847ZM17 25.0168C22.1003 25.0168 26.7899 21.5947 29.5062 18.7438L28.7822 18.054C26.1326 20.835 21.6895 24.0168 17 24.0168V25.0168ZM29.5062 18.7438C30.8179 17.3671 30.8259 15.2607 29.5499 13.8599L28.8107 14.5334C29.7377 15.5511 29.7273 17.0621 28.7822 18.054L29.5062 18.7438ZM29.5499 13.8599C28.4642 12.668 27.0378 11.3495 25.3477 10.2197L24.7919 11.0511C26.4024 12.1276 27.7685 13.3893 28.8107 14.5334L29.5499 13.8599ZM24.7208 10.2773L11.5982 23.0657L12.2961 23.7819L25.4188 10.9935L24.7208 10.2773Z" fill="#4A4A4A"/>
<ellipse cx="16.9334" cy="16.1521" rx="6.27238" ry="6.11261" fill="white"/>
<path fill-rule="evenodd" clip-rule="evenodd" d="M19.039 12.9683C18.4695 12.6271 17.7992 12.4303 17.0817 12.4303C15.0151 12.4303 13.3397 14.0629 13.3397 16.0769C13.3397 16.7761 13.5417 17.4294 13.8918 17.9844L19.039 12.9683ZM20.1619 18.1481C19.904 18.5117 19.5801 18.8273 19.207 19.0787L20.1619 18.1481Z" fill="#4A4A4A"/>
<rect width="2.60758" height="26.7277" transform="matrix(0.716169 0.697927 -0.716169 0.697927 25.6371 6.21988)" fill="#4A4A4A"/>
<rect width="2.18658" height="26.7277" transform="matrix(0.716169 0.697927 -0.716169 0.697927 27.4918 8.03979)" fill="white"/>
</svg>
