<svg width="30" height="30" viewBox="0 0 30 30" fill="none" xmlns="http://www.w3.org/2000/svg">
<path d="M17.3009 7H9.65722C8.55265 7 7.65723 7.89543 7.65723 9V21C7.65723 22.1045 8.55266 23 9.65723 23H17.3009" stroke="#C9C8C8" stroke-width="1.2" stroke-linecap="round"/>
<path d="M24.4243 15.4243C24.6586 15.1899 24.6586 14.8101 24.4243 14.5757L20.6059 10.7574C20.3716 10.523 19.9917 10.523 19.7574 10.7574C19.523 10.9917 19.523 11.3716 19.7574 11.6059L23.1515 15L19.7574 18.3941C19.523 18.6284 19.523 19.0083 19.7574 19.2426C19.9917 19.477 20.3716 19.477 20.6059 19.2426L24.4243 15.4243ZM12 15.6H24V14.4H12V15.6Z" fill="#C9C8C8"/>
</svg>
