<svg width="233" height="184" viewBox="0 0 233 184" fill="none" xmlns="http://www.w3.org/2000/svg">
<path d="M116.5 184C180.841 184 233 179.104 233 173.064C233 167.024 180.841 162.127 116.5 162.127C52.159 162.127 0 167.024 0 173.064C0 179.104 52.159 184 116.5 184Z" fill="#E5E5E5"/>
<path d="M162.755 159.701C166.171 159.701 168.935 156.929 168.935 153.501V144.028C168.935 140.601 166.171 137.829 162.755 137.829C159.338 137.829 156.574 140.601 156.574 144.028V153.501C156.574 156.929 159.338 159.701 162.755 159.701Z" fill="#4D4D61"/>
<path d="M158.302 155.735V146.262C158.302 142.835 161.066 140.062 164.482 140.062C165.979 140.062 167.322 140.601 168.397 141.448C167.438 139.292 165.288 137.79 162.755 137.79C159.338 137.79 156.574 140.563 156.574 143.99V153.463C156.574 155.427 157.457 157.16 158.878 158.277C158.494 157.545 158.302 156.659 158.302 155.735Z" fill="#56566D"/>
<path d="M162.678 140.332C164.564 140.332 166.094 139.78 166.094 139.099C166.094 138.419 164.564 137.867 162.678 137.867C160.791 137.867 159.261 138.419 159.261 139.099C159.261 139.78 160.791 140.332 162.678 140.332Z" fill="#4D4D61"/>
<path d="M162.755 139.099C164.021 139.099 165.058 138.06 165.058 136.789V126.122C165.058 125.044 164.175 124.158 163.1 124.158H162.447C161.373 124.158 160.49 125.044 160.49 126.122V136.789C160.451 138.06 161.488 139.099 162.755 139.099Z" fill="#4D4D61"/>
<path d="M114.389 44.7542H107.825C106.597 44.7542 105.599 43.753 105.599 42.5208C105.599 41.2885 106.597 40.2873 107.825 40.2873H110.589C112.777 40.2873 114.542 38.5159 114.542 36.3209C114.542 34.126 112.777 32.3546 110.589 32.3546H101.914C101.568 32.3546 101.261 32.0465 101.261 31.6999C101.261 31.3534 101.568 31.0453 101.914 31.0453H102.873C103.257 31.0453 103.564 30.7372 103.564 30.3522C103.564 29.9671 103.257 29.659 102.873 29.659H96.0789C95.6183 29.659 95.2344 30.0441 95.2344 30.5062C95.2344 30.9683 95.6183 31.3534 96.0789 31.3534H98.7275C99.4952 31.3534 100.148 32.008 100.148 32.7782C100.148 33.5483 99.4952 34.203 98.7275 34.203H97.4608C95.6567 34.203 94.1596 35.6663 94.1596 37.5147C94.1596 39.3631 95.6183 40.8264 97.4608 40.8264H100.148C100.762 40.8264 101.261 41.327 101.261 41.9431C101.261 42.5593 100.762 43.0599 100.148 43.0599H99.1114C97.9214 43.0599 96.9618 44.0226 96.9618 45.2163C96.9618 46.4101 97.9214 47.3728 99.1114 47.3728H113.122C113.89 47.3728 114.542 48.0274 114.504 48.7976L114.466 49.8758H117.268V47.6423C117.191 46.025 115.924 44.7542 114.389 44.7542ZM105.291 36.398C105.291 36.0514 105.56 35.7433 105.944 35.7433H109.744C110.09 35.7433 110.397 36.0129 110.397 36.398C110.397 36.7445 110.128 37.0526 109.744 37.0526H105.944C105.56 37.0141 105.291 36.7445 105.291 36.398Z" fill="#E5E5E5"/>
<path d="M94.0445 29.505H92.8929C92.4707 29.505 92.1252 29.1584 92.1252 28.7348C92.1252 28.3112 92.4707 27.9646 92.8929 27.9646H94.0445C94.4667 27.9646 94.8122 28.3112 94.8122 28.7348C94.8122 29.1584 94.4667 29.505 94.0445 29.505Z" fill="#E5E5E5"/>
<path d="M186.438 116.187L184.826 113.53C184.481 112.952 184.673 112.182 185.248 111.797C185.824 111.45 186.592 111.643 186.976 112.221L188.588 114.878C188.933 115.455 188.742 116.226 188.166 116.611C187.552 116.996 186.784 116.803 186.438 116.187Z" fill="#4D4D61"/>
<path d="M189.509 115.186L186.899 113.53C186.323 113.145 186.131 112.375 186.515 111.797C186.899 111.22 187.667 111.027 188.243 111.412L190.853 113.068C191.428 113.453 191.62 114.223 191.237 114.801C190.891 115.379 190.123 115.533 189.509 115.186Z" fill="#4D4D61"/>
<path d="M191.62 113.106L188.55 112.683C187.859 112.606 187.398 111.951 187.475 111.258C187.552 110.565 188.204 110.103 188.895 110.18L191.966 110.603C192.657 110.68 193.117 111.335 193.041 112.028C192.926 112.721 192.311 113.183 191.62 113.106Z" fill="#4D4D61"/>
<path d="M192.695 110.565L189.624 110.988C188.933 111.104 188.319 110.603 188.204 109.91C188.089 109.217 188.588 108.601 189.279 108.485L192.35 108.062C193.041 107.946 193.655 108.447 193.77 109.14C193.847 109.833 193.386 110.449 192.695 110.565Z" fill="#4D4D61"/>
<path d="M193.156 107.946L190.2 108.87C189.548 109.063 188.857 108.716 188.626 108.023C188.434 107.369 188.78 106.675 189.471 106.444L192.427 105.52C193.079 105.328 193.77 105.674 194 106.367C194.154 107.061 193.808 107.754 193.156 107.946Z" fill="#4D4D61"/>
<path d="M193.233 105.251L190.354 106.367C189.701 106.598 188.972 106.29 188.742 105.636C188.511 104.981 188.818 104.249 189.471 104.018L192.35 102.902C193.002 102.671 193.732 102.979 193.962 103.633C194.192 104.288 193.885 104.981 193.233 105.251Z" fill="#4D4D61"/>
<path d="M193.156 102.555L190.392 103.98C189.778 104.288 189.01 104.057 188.703 103.441C188.396 102.825 188.626 102.054 189.241 101.746L192.004 100.322C192.618 100.014 193.386 100.245 193.693 100.861C194 101.477 193.77 102.247 193.156 102.555Z" fill="#4D4D61"/>
<path d="M192.926 100.745L190.162 102.17C189.548 102.478 188.78 102.247 188.473 101.631C188.166 101.015 188.396 100.245 189.01 99.9365L191.774 98.5117C192.388 98.2037 193.156 98.4347 193.463 99.0509C193.77 99.667 193.54 100.437 192.926 100.745Z" fill="#4D4D61"/>
<path d="M123.409 54.6509H122.872H119.033C117.882 54.6509 117.114 55.8831 117.69 56.9228C118.496 58.4632 120.147 59.5414 122.028 59.5414H122.527V65.3176H127.785V59.0023C127.747 56.6148 125.789 54.6509 123.409 54.6509Z" fill="#F7E3CB"/>
<path d="M123.409 54.6509H122.872H121.221C123.64 54.6509 125.597 56.6148 125.597 59.0408V65.3561H127.785V59.0408C127.747 56.6148 125.789 54.6509 123.409 54.6509Z" fill="#EDD6BC"/>
<path d="M108.631 64.586H116.001C117.613 64.586 118.957 63.2767 118.957 61.6208V50.1069H105.675V61.6208C105.675 63.2382 106.98 64.586 108.631 64.586Z" fill="#FFD680"/>
<path d="M115.08 50.0684V61.5823C115.08 63.1997 113.775 64.5475 112.124 64.5475H115.963C117.575 64.5475 118.918 63.2382 118.918 61.5823V50.0684H115.08Z" fill="#EABD6C"/>
<path d="M141.335 65.7412L143.255 69.7076L146.095 67.7437L141.335 65.7412Z" fill="#CA4361"/>
<path d="M147.858 156.282L153.108 153.01L131.215 117.648L125.965 120.919L147.858 156.282Z" fill="#F7E3CB"/>
<path d="M68.7484 145.877L109.399 113.068L113.314 117.804L72.6637 150.652L68.7484 145.877Z" fill="#F7E3CB"/>
<path d="M73.2012 142.296L76.9245 147.225L80.6096 144.337L76.8862 139.292L73.2012 142.296Z" fill="#EDD6BC"/>
<path d="M145.212 67.7436C145.212 67.7436 149.627 72.1721 152.467 76.1769C155.269 80.1433 157.342 85.4189 157.342 86.4586C158.954 87.4984 159.377 88.076 159.645 87.8064C159.914 87.5369 159.914 85.9966 159.914 84.6488C159.914 83.2625 147.439 66.2418 145.212 67.7436Z" fill="#CA4361"/>
<path d="M158.647 157.16L128.668 166.286C128.131 166.44 127.555 166.132 127.363 165.593L127.325 165.516C127.171 164.977 127.478 164.399 128.016 164.207L157.995 155.08C158.532 154.926 159.108 155.234 159.3 155.773L159.338 155.85C159.492 156.428 159.185 157.006 158.647 157.16Z" fill="#595D5C"/>
<path d="M153.849 149.42L153.734 149.458C153.081 150.613 151.699 151.653 149.934 152.192C148.629 152.577 147.324 152.654 146.249 152.385C145.289 152.154 144.291 152.115 143.331 152.385L131.509 155.696C130.088 156.082 128.975 157.16 128.4 158.662L127.133 161.973C126.711 163.09 127.67 164.361 128.707 164.053L157.726 155.196L156.498 151.191C156.114 149.92 154.924 149.15 153.849 149.42Z" fill="#9B8462"/>
<path d="M128.4 158.7L128.208 159.239C129.206 160.009 130.549 160.317 131.893 159.932L150.011 154.387C151.738 153.848 152.813 152.308 152.851 150.575C152.122 151.268 151.124 151.846 149.972 152.192C148.667 152.577 147.362 152.654 146.287 152.385C145.327 152.154 144.329 152.115 143.37 152.385L131.547 155.696C130.088 156.082 128.975 157.16 128.4 158.7Z" fill="#E1C885"/>
<path d="M137.612 57.77C153.964 68.0132 165.211 84.5332 168.973 103.248H174.27C171.276 84.1481 160.49 67.1275 144.406 56.2682" fill="#F7E3CB"/>
<path d="M169.51 123.195L173.771 120.423H152.237L156.498 123.195C160.49 125.776 165.557 125.776 169.51 123.195Z" fill="#4D4D61"/>
<path d="M143.178 56.8458C147.592 54.9974 150.74 50.6075 150.74 45.4859V41.327H151.584C154.502 41.327 156.882 38.9395 156.882 36.0129C156.882 33.0862 154.847 30.3522 151.891 30.3522L150.471 30.4677L150.701 23.9213C150.701 17.1053 145.212 11.5986 138.418 11.5986C131.624 11.5986 126.135 17.1053 126.135 23.9213V30.6602H122.488C121.375 30.6602 120.454 31.5844 120.454 32.7012C120.454 35.7048 122.872 38.1693 125.904 38.1693H126.173V45.4859C126.173 51.9938 131.24 57.3464 137.612 57.77" fill="#F7E3CB"/>
<path d="M182.293 112.991H140.875C140.721 112.991 140.606 112.991 140.453 113.029C137.267 113.26 134.771 116.071 135.002 119.383C135.194 122.348 137.65 124.774 140.644 124.928C141.834 124.967 142.948 124.697 143.869 124.158C147.784 121.886 152.16 120.5 156.728 120.5H182.293C184.327 120.5 185.978 118.844 185.978 116.803C186.016 114.685 184.327 112.991 182.293 112.991Z" fill="#CA4361"/>
<path d="M141.374 121.424C141.143 118.112 143.639 115.34 146.825 115.07C146.94 115.07 147.093 115.032 147.247 115.032H185.632C185.018 113.799 183.79 112.991 182.331 112.991H140.875C140.721 112.991 140.606 112.991 140.453 113.029C137.267 113.26 134.771 116.071 135.002 119.383C135.194 122.348 137.65 124.774 140.644 124.928C141.335 124.967 141.988 124.89 142.602 124.697C141.911 123.735 141.451 122.618 141.374 121.424Z" fill="#D35375"/>
<path d="M177.525 163.006L178.571 160.357L167.152 155.82L166.106 158.469L177.525 163.006Z" fill="#4D4D61"/>
<path d="M149.051 162.975L148.014 160.356L158.11 156.351C158.839 156.082 159.645 156.428 159.952 157.16C160.221 157.891 159.876 158.7 159.146 159.008L149.051 162.975Z" fill="#4D4D61"/>
<path d="M156.728 37.0911L154.962 46.5641C154.233 50.3764 150.74 52.995 146.901 52.5329H146.863L151.392 33.3943L156.728 37.0911Z" fill="#A3886C"/>
<path d="M126.135 38.824V37.9383C126.135 36.706 125.06 35.7818 123.87 36.0129L122.45 36.5135L126.135 38.824Z" fill="#EDD6BC"/>
<path d="M151.392 30.6602H150.701V24.0753C147.746 28.6578 143.14 34.7036 143.14 34.7036V42.9828C143.14 49.0286 138.265 53.9192 132.238 53.9192H129.436C131.662 56.3067 134.848 57.8085 138.38 57.8085C145.174 57.8085 150.663 52.3018 150.663 45.4859V41.327H151.508C154.54 41.327 156.958 38.7855 156.805 35.7433C156.728 32.8552 154.233 30.6602 151.392 30.6602Z" fill="#EDD6BC"/>
<path d="M132.507 20.7251L131.125 23.4207L136.537 26.7324L136.883 24.4219L132.507 20.7251Z" fill="#B0977A"/>
<path d="M132.507 20.7251L132.085 21.5723C133.582 21.9959 134.695 23.3051 134.695 24.9225C134.695 25.1535 134.656 25.3846 134.618 25.5771L136.537 26.7709L136.883 24.4604L132.507 20.7251Z" fill="#A3886C"/>
<path d="M158.878 17.1438C160.183 17.9525 160.758 18.1835 162.025 18.1835C159.837 15.1029 159.3 9.0571 156.037 5.24478C154.578 3.51191 152.928 1.62501 149.78 0.662304C144.368 -0.955042 139.263 0.854843 138.61 1.20142C134.656 3.31937 130.703 8.17142 131.854 12.3303C131.969 12.7924 131.585 13.1005 131.854 13.447C136.192 10.1353 143.024 11.1365 146.249 15.6035C148.821 19.1463 148.13 24.9225 145.635 28.2342C144.905 28.9659 144.598 31.4304 143.523 33.8949L146.402 32.1235C149.358 30.3136 153.811 30.8528 156.267 33.3173C156.69 34.0489 156.958 34.8191 157.073 35.5893C157.381 35.3967 157.764 35.1657 158.225 34.7806C161.066 32.3931 161.565 28.7733 161.68 27.8491C162.524 22.3809 159.492 17.837 158.878 17.1438Z" fill="#B0977A"/>
<path d="M162.064 18.2221C159.876 15.1414 159.338 9.09561 156.075 5.28329C154.809 3.78147 153.388 2.12562 150.932 1.12441C153.619 4.24358 155.269 8.32544 155.269 12.7924C155.269 19.8009 151.239 25.8467 145.366 28.7733C144.829 29.813 144.483 31.8925 143.562 33.9719L146.441 32.2005C149.396 30.3907 153.849 30.9298 156.306 33.3943C156.728 34.126 156.997 34.8961 157.112 35.6663C157.419 35.4737 157.803 35.2427 158.263 34.8576C161.104 32.4701 161.603 28.8503 161.718 27.9261C162.486 22.4195 159.415 17.837 158.839 17.1823C160.221 17.991 160.797 18.2221 162.064 18.2221Z" fill="#A3886C"/>
<path d="M118.29 111.737L141.807 149.717L149.665 144.819L126.148 106.84L118.29 111.737Z" fill="#475C80"/>
<path d="M122.949 119.537L139.877 146.609C140.952 145.915 144.214 147.417 143.523 146.339L128.054 123.118C127.363 122.04 124.407 119.229 123.294 119.922L122.949 119.537Z" fill="#6987AF"/>
<path d="M122.219 118.074C122.219 118.074 129.474 115.802 131.969 116.264C129.436 111.373 128.515 110.411 128.515 110.411L118.803 113.568L122.219 118.074Z" fill="#4D4D61"/>
<path d="M104.255 114.762L74.6598 139.253L80.5328 146.416L107.556 124.043C116.231 116.842 127.171 112.914 138.418 112.914H171.929C174.462 112.914 176.535 110.834 176.535 108.293V103.672H135.079C123.832 103.633 112.93 107.561 104.255 114.762Z" fill="#475C80"/>
<path d="M76.5023 137.713L79.1125 141.371L110.013 113.607L108.439 111.643C106.98 112.606 105.599 113.645 104.255 114.762L76.5023 137.713Z" fill="#6987AF"/>
<path d="M128.4 106.021L162.985 106.483C164.789 106.483 170.854 105.405 170.854 103.595H135.155C131.47 103.595 119.878 105.405 115.617 107.715C114.504 108.331 123.217 106.021 128.4 106.021Z" fill="#6987AF"/>
<path d="M176.573 103.248C173.925 85.9195 164.981 70.0927 151.661 58.8868L143.255 64.74C155.193 74.5211 163.445 88.153 166.593 103.248H176.573Z" fill="#E5E5E5"/>
<path d="M166.593 103.248H170.815C167.553 87.3058 158.954 72.8652 146.556 62.4295L143.255 64.74C155.193 74.4826 163.445 88.153 166.593 103.248Z" fill="white"/>
<path d="M115.233 76.5235C115.233 76.5235 112.047 79.1806 112.316 73.7124C112.431 71.2094 115.694 71.2864 115.694 71.2864L116.039 73.6354L115.233 76.5235Z" fill="#B0977A"/>
<path d="M124.638 70.5933C123.102 72.7497 120.722 74.136 118.074 74.4056C116.078 74.5981 116.116 69.9771 113.007 75.4453C111.779 76.0999 110.32 74.7906 109.667 74.0205C109.475 73.7894 109.475 73.4429 109.706 73.2503C110.282 72.7497 111.356 71.556 111.855 69.4765C112.201 67.4741 112.853 66.0108 114.427 66.858C115.809 67.5896 124.407 66.5499 124.638 70.5933Z" fill="#EDD6BC"/>
<path d="M125.751 75.1372C125.751 75.1372 124.638 71.9025 121.644 70.3622C121.337 71.556 119.801 72.7497 118.304 73.1733L119.149 74.6366C119.801 75.8304 119.264 77.3322 117.997 77.7558C116.884 78.1409 115.694 77.6018 115.233 76.5235L113.352 70.7858C113.352 70.7858 117.037 69.438 118.151 68.2828C118.918 67.5126 120.722 64.6245 120.722 64.6245C120.722 64.6245 124.062 65.4332 126.327 67.7051C128.208 69.592 129.897 72.7882 129.897 72.7882L125.751 75.1372Z" fill="#EDD6BC"/>
<path d="M117.46 77.6018L115.579 71.864C115.579 71.864 119.264 70.5162 120.377 69.361C121.145 68.5908 122.949 65.7027 122.949 65.7027C122.949 65.7027 123.448 65.8182 124.215 66.1263C122.411 65.0481 120.684 64.6245 120.684 64.6245C120.684 64.6245 118.88 67.5126 118.112 68.2828C116.961 69.3995 113.314 70.7858 113.314 70.7858L115.195 76.5235C115.579 77.4862 116.577 78.0253 117.575 77.8328C117.536 77.7558 117.498 77.6788 117.46 77.6018Z" fill="#F7E3CB"/>
<path d="M123.87 71.4404C123.832 71.5945 123.755 71.7485 123.678 71.9025C125.137 73.4429 125.751 75.1372 125.751 75.1372L127.056 74.4056C126.403 73.4044 125.367 72.2106 123.87 71.4404Z" fill="#F7E3CB"/>
<path d="M130.549 71.941L140.337 90.7716C141.758 93.5056 144.099 95.6236 146.978 96.7788C153.542 99.3974 160.989 96.1627 163.599 89.5778C166.209 82.9929 162.985 75.5223 156.421 72.9037L152.275 71.2479C150.51 70.5547 149.665 68.5138 150.356 66.7809C151.047 65.0481 153.043 64.2009 154.809 64.894L158.954 66.5499C169.05 70.5547 173.963 82.0302 169.971 92.1193C165.979 102.247 154.54 107.176 144.483 103.171C140.107 101.438 136.499 98.1651 134.311 93.9678L124.676 75.4453L130.549 71.941Z" fill="#E5E5E5"/>
<path d="M133.198 77.0241L130.549 71.941L124.638 75.4453L127.248 80.4514L133.198 77.0241Z" fill="#E5E5E5"/>
<path d="M124.638 75.4453L134.272 93.9678C134.618 94.6224 135.002 95.277 135.424 95.8932C135.194 94.5454 136.576 97.4335 136.576 97.4335L126.749 74.136L124.638 75.4453Z" fill="white"/>
<path d="M150.855 68.9759C151.546 67.243 153.542 66.3959 155.308 67.089L159.453 68.7449C165.365 71.0939 169.51 76.0229 171.123 81.7606C170.048 75.1372 165.633 69.207 158.993 66.5499L154.847 64.894C153.081 64.2009 151.124 65.0481 150.394 66.7809C149.972 67.8207 150.087 68.9759 150.663 69.8616C150.663 69.5535 150.74 69.284 150.855 68.9759Z" fill="white"/>
<path d="M131.048 72.9037L139.071 91.2722C141.105 94.969 143.6 97.8571 146.441 98.9738C153.005 101.592 161.411 98.3577 164.021 91.7728C165.134 88.9232 165.173 85.9195 164.328 83.224C164.597 85.3034 164.367 87.4984 163.522 89.5778C160.912 96.1627 153.465 99.3974 146.901 96.7789C144.061 95.6236 141.681 93.5057 140.261 90.7716L130.549 71.941" fill="white"/>
<path d="M151.815 57.8085L145.635 68.5523L138.648 63.9313L148.974 56.6533L151.815 57.8085Z" fill="#E5E5E5"/>
<path d="M146.633 58.3091L138.648 63.9313L141.796 66.0108C141.834 65.9723 141.873 65.9723 141.911 65.9338C145.404 64.0083 147.4 60.7351 146.633 58.3091Z" fill="white"/>
<path d="M143.293 170.676C147.448 170.676 150.817 167.297 150.817 163.129C150.817 158.96 147.448 155.581 143.293 155.581C139.138 155.581 135.77 158.96 135.77 163.129C135.77 167.297 139.138 170.676 143.293 170.676Z" fill="#56566D"/>
<path d="M138.956 166.902C138.956 162.743 142.333 159.355 146.479 159.355C147.861 159.355 149.166 159.74 150.279 160.394C149.166 157.583 146.441 155.581 143.255 155.581C139.109 155.581 135.731 158.97 135.731 163.129C135.731 165.901 137.228 168.327 139.455 169.636C139.147 168.789 138.956 167.865 138.956 166.902Z" fill="#66667C"/>
<path d="M143.293 166.864C145.349 166.864 147.016 165.191 147.016 163.129C147.016 161.065 145.349 159.393 143.293 159.393C141.237 159.393 139.57 161.065 139.57 163.129C139.57 165.191 141.237 166.864 143.293 166.864Z" fill="#4D4D61"/>
<path d="M152.045 159.393C150.778 159.393 149.627 158.854 148.744 157.93C147.362 156.467 145.443 155.581 143.293 155.581C141.182 155.581 139.301 156.428 137.919 157.853C136.959 158.816 135.731 159.393 134.388 159.393H134.349C135.808 155.889 139.263 153.424 143.293 153.424C147.324 153.424 150.778 155.889 152.237 159.393H152.045Z" fill="#CA4361"/>
<path d="M140.952 153.694C137.958 154.426 135.539 156.582 134.349 159.393H134.388C135.693 159.393 136.921 158.893 137.804 157.968C138.572 157.16 140.145 156.505 141.412 156.12C142.525 155.773 142.602 154.156 141.489 153.771C141.374 153.694 141.143 153.655 140.952 153.694Z" fill="#D35375"/>
<path d="M183.636 170.676C187.791 170.676 191.16 167.297 191.16 163.129C191.16 158.96 187.791 155.581 183.636 155.581C179.481 155.581 176.113 158.96 176.113 163.129C176.113 167.297 179.481 170.676 183.636 170.676Z" fill="#56566D"/>
<path d="M179.567 166.902C179.567 162.743 182.945 159.355 187.091 159.355C188.473 159.355 189.778 159.74 190.891 160.394C189.778 157.583 187.053 155.581 183.867 155.581C179.721 155.581 176.343 158.97 176.343 163.129C176.343 165.901 177.84 168.327 180.066 169.636C179.759 168.789 179.567 167.865 179.567 166.902Z" fill="#66667C"/>
<path d="M47.9435 100.899H42.7231V172.794H47.9435V100.899Z" fill="#4D4D61"/>
<path d="M192.388 159.393C191.121 159.393 189.97 158.854 189.087 157.93C187.705 156.467 185.786 155.581 183.636 155.581C181.525 155.581 179.644 156.428 178.262 157.853C177.303 158.816 176.074 159.393 174.731 159.393H174.692C176.151 155.889 179.606 153.424 183.636 153.424C187.667 153.424 191.121 155.889 192.58 159.393H192.388Z" fill="#CA4361"/>
<path d="M183.636 166.864C185.693 166.864 187.36 165.191 187.36 163.129C187.36 161.065 185.693 159.393 183.636 159.393C181.58 159.393 179.913 161.065 179.913 163.129C179.913 165.191 181.58 166.864 183.636 166.864Z" fill="#4D4D61"/>
<path d="M131.01 93.7367H18.3099C17.3886 93.7367 16.6593 93.005 16.6593 92.0808V88.9617C16.6593 88.0375 17.3886 87.3058 18.3099 87.3058H131.01C131.931 87.3058 132.66 88.0375 132.66 88.9617V92.0808C132.66 93.005 131.931 93.7367 131.01 93.7367Z" fill="#B98C78"/>
<path d="M59.6511 90.8486C43.2605 90.8486 28.5204 91.9653 18.425 93.7367H100.915C90.7817 91.9653 76.0417 90.8486 59.6511 90.8486Z" fill="#C9A08F"/>
<path d="M118.842 101.977H30.4397C28.175 101.977 26.3325 100.129 26.3325 97.8571C26.3325 95.5851 28.175 93.7367 30.4397 93.7367H118.842C121.106 93.7367 122.949 95.5851 122.949 97.8571C122.949 100.129 121.106 101.977 118.842 101.977Z" fill="#4D4D61"/>
<path d="M63.1441 100.052C50.5153 100.052 39.6906 100.861 34.9308 101.977H91.3575C86.5977 100.822 75.773 100.052 63.1441 100.052Z" fill="#575770"/>
<path d="M64.718 81.029C66.096 81.029 67.213 79.908 67.213 78.526C67.213 77.1435 66.096 76.0229 64.718 76.0229C63.3399 76.0229 62.2229 77.1435 62.2229 78.526C62.2229 79.908 63.3399 81.029 64.718 81.029Z" fill="#83ABBA"/>
<path d="M63.9886 77.5247L64.1806 77.4862L54.7761 25.0765L54.5842 25.115C52.7801 25.4616 51.5517 27.1945 51.8972 29.0044L60.1117 74.8292C60.4188 76.639 62.1461 77.8328 63.9886 77.5247Z" fill="#92B4C3"/>
<path d="M59.9582 74.0205C59.9582 68.0517 59.4208 61.5823 58.2308 54.9204C57.0025 47.9504 55.1984 41.404 53.0488 35.6278L59.9582 74.0205Z" fill="#ACD3E5"/>
<path d="M109.284 101.207H104.063V173.102H109.284V101.207Z" fill="#4D4D61"/>
<path d="M69.5545 84.6103H117.536C119.878 84.6103 121.797 82.6848 121.797 80.3358V78.526H65.2937V80.3358C65.2937 82.6848 67.213 84.6103 69.5545 84.6103Z" fill="#92B4C3"/>
<path d="M117.536 83.2625H69.5545C67.213 83.2625 65.2937 81.337 65.2937 78.988V80.3358C65.2937 82.6848 67.213 84.6103 69.5545 84.6103H117.536C119.878 84.6103 121.797 82.6848 121.797 80.3358V78.988C121.797 81.337 119.878 83.2625 117.536 83.2625Z" fill="#83ABBA"/>
<path d="M72.3939 87.2746H114.695V84.5791H72.3939V87.2746Z" fill="#4D4D61"/>
<path d="M205.554 58.7712C206.13 54.3428 202.983 50.2998 198.53 49.8762C194.269 49.4526 190.507 52.6099 189.931 56.8843L184.673 96.1242C184.442 97.8956 185.671 99.5133 187.436 99.7444L192.081 100.36C193.847 100.591 195.459 99.3589 195.689 97.5875L196.457 91.8117C197.877 81.2219 200.487 70.7477 204.94 61.0436C205.209 60.3504 205.439 59.5799 205.554 58.7712Z" fill="#CA4361"/>
<path d="M194.883 91.8113L194.115 97.5875C193.924 98.9353 192.926 100.014 191.659 100.283L192.081 100.322C193.847 100.553 195.459 99.3204 195.689 97.549L196.457 91.7728C197.877 81.183 200.487 70.7088 204.94 61.0047C205.247 60.3116 205.478 59.5414 205.593 58.7712C206.169 54.3428 203.021 50.2994 198.568 49.8758C198.069 49.8373 197.532 49.8373 197.071 49.8758C201.524 50.3379 204.671 54.3813 204.096 58.7712C203.981 59.5799 203.75 60.3116 203.443 61.0047" fill="#D35375"/>
<path d="M189.931 56.8843L185.863 87.3058C189.394 77.1782 192.81 66.2803 192.81 57.8085C192.81 52.0708 199.758 50.1454 201.677 52.0708C200.411 49.7218 196.38 49.4907 194.192 50.7615C191.812 52.1093 190.162 54.9974 189.931 56.8843Z" fill="#D35375"/>
<path d="M73.8921 158.392L47.5596 141.371C47.0606 141.063 46.9455 140.408 47.2526 139.946L47.2909 139.87C47.598 139.369 48.2506 139.253 48.7112 139.561L75.0437 156.582C75.5427 156.89 75.6578 157.545 75.3507 158.007L75.3124 158.084C75.0437 158.546 74.3911 158.7 73.8921 158.392Z" fill="#595D5C"/>
<path d="M76.6942 149.728L76.5791 149.651C75.274 149.882 73.585 149.497 72.0496 148.495C70.898 147.764 70.0152 146.763 69.5162 145.8C69.0555 144.914 68.4414 144.105 67.6353 143.566L57.4631 136.673C56.2732 135.865 54.6993 135.711 53.2023 136.211L49.9012 137.367C48.788 137.752 48.4425 139.33 49.3254 139.908L74.8133 156.39L77.0781 152.847C77.769 151.73 77.6155 150.344 76.6942 149.728Z" fill="#9B8462"/>
<path d="M53.2023 136.211L52.6649 136.404C52.7033 137.675 53.3558 138.907 54.5074 139.677L70.4374 149.959C71.9344 150.921 73.8537 150.767 75.1588 149.689C74.1608 149.574 73.086 149.189 72.0496 148.534C70.898 147.802 70.0152 146.801 69.5161 145.838C69.0555 144.953 68.4414 144.144 67.6353 143.605L57.4631 136.712C56.2732 135.826 54.6993 135.672 53.2023 136.211Z" fill="#E1C885"/>
<path d="M76.0801 135.056L72.8941 138.214L80.6863 148.033L84.5249 144.837L76.0801 135.056Z" fill="#92B4C3"/>
<path d="M75.8498 135.287L72.8941 138.214L77.1165 143.528C77.8074 142.527 78.2296 141.333 78.2296 140.062C78.2296 138.137 77.3084 136.404 75.8498 135.287Z" fill="#9EC0CC"/>
<path d="M138.956 147.61L141.374 151.422L152.582 145.8L150.279 141.371L138.956 147.61Z" fill="#92B4C3"/>
<path d="M138.956 147.61L141.374 151.422L152.582 145.8L150.279 141.371L138.956 147.61Z" fill="#92B4C3"/>
<path d="M143.293 148.072C143.293 147.225 142.832 146.493 142.065 145.877L138.956 147.61L141.067 150.921C142.41 150.267 143.293 149.227 143.293 148.072Z" fill="#9EC0CC"/>
<path d="M76.0801 82.7619H74.1608C73.6618 82.7619 73.2395 82.3383 73.2395 81.8377V80.6824C73.2395 80.1818 73.6618 79.7582 74.1608 79.7582H76.0801C76.5791 79.7582 77.0013 80.1818 77.0013 80.6824V81.8377C77.0013 82.3383 76.5791 82.7619 76.0801 82.7619Z" fill="#4D4D61"/>
</svg>
